<?xml version="1.0" encoding="utf-8" standalone="no"?>
<!DOCTYPE svg PUBLIC "-//W3C//DTD SVG 1.1//EN"
  "http://www.w3.org/Graphics/SVG/1.1/DTD/svg11.dtd">
<!-- Created with matplotlib (https://matplotlib.org/) -->
<svg height="280.512pt" version="1.1" viewBox="0 0 371.52 280.512" width="371.52pt" xmlns="http://www.w3.org/2000/svg" xmlns:xlink="http://www.w3.org/1999/xlink">
 <metadata>
  <rdf:RDF xmlns:cc="http://creativecommons.org/ns#" xmlns:dc="http://purl.org/dc/elements/1.1/" xmlns:rdf="http://www.w3.org/1999/02/22-rdf-syntax-ns#">
   <cc:Work>
    <dc:type rdf:resource="http://purl.org/dc/dcmitype/StillImage"/>
    <dc:date>2024-03-29T12:12:23.171773</dc:date>
    <dc:format>image/svg+xml</dc:format>
    <dc:creator>
     <cc:Agent>
      <dc:title>Matplotlib v3.3.4, https://matplotlib.org/</dc:title>
     </cc:Agent>
    </dc:creator>
   </cc:Work>
  </rdf:RDF>
 </metadata>
 <defs>
  <style type="text/css">*{stroke-linecap:butt;stroke-linejoin:round;}</style>
 </defs>
 <g id="figure_1">
  <g id="patch_1">
   <path d="M 0 280.512 
L 371.52 280.512 
L 371.52 0 
L 0 0 
z
" style="fill:#ffffff;"/>
  </g>
  <g id="axes_1">
   <g id="line2d_1">
    <path clip-path="url(#p9b3deaea49)" d="M 193.539155 131.19115 
L 182.401623 131.19115 
M 190.933468 124.032083 
L 182.401623 131.19115 
M 190.933468 124.032083 
L 193.539155 131.19115 
M 184.335635 120.222822 
L 182.401623 131.19115 
M 184.335635 120.222822 
L 190.933468 124.032083 
M 176.832857 121.545765 
L 182.401623 131.19115 
M 176.832857 121.545765 
L 184.335635 120.222822 
M 171.935766 127.38189 
L 182.401623 131.19115 
M 171.935766 127.38189 
L 176.832857 121.545765 
M 171.935766 135.000411 
L 182.401623 131.19115 
M 171.935766 135.000411 
L 171.935766 127.38189 
M 176.832857 140.836536 
L 182.401623 131.19115 
M 176.832857 140.836536 
L 171.935766 135.000411 
M 184.335635 142.159478 
L 182.401623 131.19115 
M 184.335635 142.159478 
L 176.832857 140.836536 
M 190.933468 138.350218 
L 182.401623 131.19115 
M 190.933468 138.350218 
L 193.539155 131.19115 
M 190.933468 138.350218 
L 184.335635 142.159478 
M 200.053422 131.19115 
L 193.539155 131.19115 
M 195.923686 119.844793 
L 193.539155 131.19115 
M 195.923686 119.844793 
L 190.933468 124.032083 
M 195.923686 119.844793 
L 200.053422 131.19115 
M 185.466826 113.807522 
L 190.933468 124.032083 
M 185.466826 113.807522 
L 184.335635 120.222822 
M 185.466826 113.807522 
L 176.832857 121.545765 
M 185.466826 113.807522 
L 195.923686 119.844793 
M 173.575724 115.904244 
L 176.832857 121.545765 
M 173.575724 115.904244 
L 185.466826 113.807522 
M 165.814358 125.15388 
L 176.832857 121.545765 
M 165.814358 125.15388 
L 171.935766 127.38189 
M 165.814358 125.15388 
L 173.575724 115.904244 
M 165.814358 137.228421 
L 171.935766 127.38189 
M 165.814358 137.228421 
L 171.935766 135.000411 
M 165.814358 137.228421 
L 176.832857 140.836536 
M 165.814358 137.228421 
L 165.814358 125.15388 
M 173.575724 146.478057 
L 176.832857 140.836536 
M 173.575724 146.478057 
L 184.335635 142.159478 
M 173.575724 146.478057 
L 165.814358 137.228421 
M 185.466826 148.574779 
L 184.335635 142.159478 
M 185.466826 148.574779 
L 173.575724 146.478057 
M 195.923686 142.537508 
L 193.539155 131.19115 
M 195.923686 142.537508 
L 184.335635 142.159478 
M 195.923686 142.537508 
L 190.933468 138.350218 
M 195.923686 142.537508 
L 200.053422 131.19115 
M 195.923686 142.537508 
L 185.466826 148.574779 
M 210.377839 131.19115 
L 200.053422 131.19115 
M 210.377839 131.19115 
L 195.923686 142.537508 
M 203.832648 113.208385 
L 200.053422 131.19115 
M 203.832648 113.208385 
L 195.923686 119.844793 
M 203.832648 113.208385 
L 185.466826 113.807522 
M 203.832648 113.208385 
L 210.377839 131.19115 
M 187.259642 103.639956 
L 185.466826 113.807522 
M 187.259642 103.639956 
L 173.575724 115.904244 
M 187.259642 103.639956 
L 203.832648 113.208385 
M 168.413515 106.963037 
L 173.575724 115.904244 
M 168.413515 106.963037 
L 187.259642 103.639956 
M 156.11258 121.622721 
L 173.575724 115.904244 
M 156.11258 121.622721 
L 165.814358 125.15388 
M 156.11258 121.622721 
L 165.814358 137.228421 
M 156.11258 121.622721 
L 168.413515 106.963037 
M 156.11258 140.75958 
L 165.814358 137.228421 
M 156.11258 140.75958 
L 156.11258 121.622721 
M 168.413515 155.419264 
L 165.814358 137.228421 
M 168.413515 155.419264 
L 173.575724 146.478057 
M 168.413515 155.419264 
L 185.466826 148.574779 
M 168.413515 155.419264 
L 156.11258 140.75958 
M 187.259642 158.742345 
L 185.466826 148.574779 
M 187.259642 158.742345 
L 195.923686 142.537508 
M 187.259642 158.742345 
L 168.413515 155.419264 
M 203.832648 149.173915 
L 195.923686 142.537508 
M 203.832648 149.173915 
L 210.377839 131.19115 
M 203.832648 149.173915 
L 187.259642 158.742345 
M 226.740937 131.19115 
L 210.377839 131.19115 
M 226.740937 131.19115 
L 203.832648 113.208385 
M 226.740937 131.19115 
L 203.832648 149.173915 
M 216.367508 102.690389 
L 203.832648 113.208385 
M 216.367508 102.690389 
L 226.740937 131.19115 
M 190.101064 87.52545 
L 203.832648 113.208385 
M 190.101064 87.52545 
L 187.259642 103.639956 
M 190.101064 87.52545 
L 216.367508 102.690389 
M 160.231966 92.792178 
L 187.259642 103.639956 
M 160.231966 92.792178 
L 168.413515 106.963037 
M 160.231966 92.792178 
L 156.11258 121.622721 
M 160.231966 92.792178 
L 190.101064 87.52545 
M 140.736297 116.026212 
L 156.11258 121.622721 
M 140.736297 116.026212 
L 156.11258 140.75958 
M 140.736297 116.026212 
L 160.231966 92.792178 
M 140.736297 146.356089 
L 156.11258 140.75958 
M 140.736297 146.356089 
L 140.736297 116.026212 
M 160.231966 169.590123 
L 156.11258 140.75958 
M 160.231966 169.590123 
L 168.413515 155.419264 
M 160.231966 169.590123 
L 140.736297 146.356089 
M 190.101064 174.856851 
L 168.413515 155.419264 
M 190.101064 174.856851 
L 187.259642 158.742345 
M 190.101064 174.856851 
L 160.231966 169.590123 
M 216.367508 159.691912 
L 187.259642 158.742345 
M 216.367508 159.691912 
L 203.832648 149.173915 
M 216.367508 159.691912 
L 226.740937 131.19115 
M 216.367508 159.691912 
L 190.101064 174.856851 
M 252.6747 131.19115 
L 226.740937 131.19115 
M 236.233923 86.020487 
L 226.740937 131.19115 
M 236.233923 86.020487 
L 216.367508 102.690389 
M 236.233923 86.020487 
L 252.6747 131.19115 
M 194.604415 61.985679 
L 216.367508 102.690389 
M 194.604415 61.985679 
L 190.101064 87.52545 
M 194.604415 61.985679 
L 160.231966 92.792178 
M 194.604415 61.985679 
L 236.233923 86.020487 
M 147.265085 70.33288 
L 160.231966 92.792178 
M 147.265085 70.33288 
L 194.604415 61.985679 
M 116.366531 107.156342 
L 160.231966 92.792178 
M 116.366531 107.156342 
L 140.736297 116.026212 
M 116.366531 107.156342 
L 140.736297 146.356089 
M 116.366531 107.156342 
L 147.265085 70.33288 
M 116.366531 155.225958 
L 140.736297 146.356089 
M 116.366531 155.225958 
L 160.231966 169.590123 
M 116.366531 155.225958 
L 116.366531 107.156342 
M 147.265085 192.04942 
L 160.231966 169.590123 
M 147.265085 192.04942 
L 116.366531 155.225958 
M 194.604415 200.396621 
L 160.231966 169.590123 
M 194.604415 200.396621 
L 190.101064 174.856851 
M 194.604415 200.396621 
L 216.367508 159.691912 
M 194.604415 200.396621 
L 147.265085 192.04942 
M 236.233923 176.361814 
L 226.740937 131.19115 
M 236.233923 176.361814 
L 216.367508 159.691912 
M 236.233923 176.361814 
L 252.6747 131.19115 
M 236.233923 176.361814 
L 194.604415 200.396621 
M 293.776945 131.19115 
L 252.6747 131.19115 
M 267.720069 59.600474 
L 252.6747 131.19115 
M 267.720069 59.600474 
L 236.233923 86.020487 
M 267.720069 59.600474 
L 194.604415 61.985679 
M 267.720069 59.600474 
L 293.776945 131.19115 
M 201.741745 21.50787 
L 194.604415 61.985679 
M 201.741745 21.50787 
L 147.265085 70.33288 
M 201.741745 21.50787 
L 267.720069 59.600474 
M 126.713962 34.737293 
L 147.265085 70.33288 
M 126.713962 34.737293 
L 201.741745 21.50787 
M 77.743055 93.098547 
L 147.265085 70.33288 
M 77.743055 93.098547 
L 116.366531 107.156342 
M 77.743055 93.098547 
L 126.713962 34.737293 
M 77.743055 169.283754 
L 116.366531 107.156342 
M 77.743055 169.283754 
L 116.366531 155.225958 
M 77.743055 169.283754 
L 77.743055 93.098547 
M 126.713962 227.645008 
L 116.366531 155.225958 
M 126.713962 227.645008 
L 147.265085 192.04942 
M 126.713962 227.645008 
L 194.604415 200.396621 
M 126.713962 227.645008 
L 77.743055 169.283754 
M 201.741745 240.87443 
L 194.604415 200.396621 
M 201.741745 240.87443 
L 126.713962 227.645008 
M 267.720069 202.781827 
L 252.6747 131.19115 
M 267.720069 202.781827 
L 194.604415 200.396621 
M 267.720069 202.781827 
L 236.233923 176.361814 
M 267.720069 202.781827 
L 293.776945 131.19115 
M 267.720069 202.781827 
L 201.741745 240.87443 
L 201.741745 240.87443 
" style="fill:none;stroke:#808080;stroke-linecap:square;stroke-width:0.75;"/>
   </g>
   <g id="line2d_2"/>
   <g id="line2d_3">
    <defs>
     <path d="M 0 1.5 
C 0.397805 1.5 0.77937 1.341951 1.06066 1.06066 
C 1.341951 0.77937 1.5 0.397805 1.5 0 
C 1.5 -0.397805 1.341951 -0.77937 1.06066 -1.06066 
C 0.77937 -1.341951 0.397805 -1.5 0 -1.5 
C -0.397805 -1.5 -0.77937 -1.341951 -1.06066 -1.06066 
C -1.341951 -0.77937 -1.5 -0.397805 -1.5 0 
C -1.5 0.397805 -1.341951 0.77937 -1.06066 1.06066 
C -0.77937 1.341951 -0.397805 1.5 0 1.5 
z
" id="m9243571f92" style="stroke:#1f77b4;"/>
    </defs>
    <g clip-path="url(#p9b3deaea49)">
     <use style="fill:#1f77b4;stroke:#1f77b4;" x="214.974288" xlink:href="#m9243571f92" y="159.634881"/>
     <use style="fill:#1f77b4;stroke:#1f77b4;" x="160.589345" xlink:href="#m9243571f92" y="123.590594"/>
     <use style="fill:#1f77b4;stroke:#1f77b4;" x="151.29233" xlink:href="#m9243571f92" y="195.60958"/>
     <use style="fill:#1f77b4;stroke:#1f77b4;" x="138.33062" xlink:href="#m9243571f92" y="157.585832"/>
     <use style="fill:#1f77b4;stroke:#1f77b4;" x="126.844381" xlink:href="#m9243571f92" y="150.257799"/>
     <use style="fill:#1f77b4;stroke:#1f77b4;" x="215.248689" xlink:href="#m9243571f92" y="154.2083"/>
     <use style="fill:#1f77b4;stroke:#1f77b4;" x="170.734418" xlink:href="#m9243571f92" y="87.047712"/>
     <use style="fill:#1f77b4;stroke:#1f77b4;" x="198.217704" xlink:href="#m9243571f92" y="107.491752"/>
     <use style="fill:#1f77b4;stroke:#1f77b4;" x="127.423019" xlink:href="#m9243571f92" y="116.392056"/>
     <use style="fill:#1f77b4;stroke:#1f77b4;" x="140.456461" xlink:href="#m9243571f92" y="138.954223"/>
     <use style="fill:#1f77b4;stroke:#1f77b4;" x="210.784171" xlink:href="#m9243571f92" y="108.601225"/>
     <use style="fill:#1f77b4;stroke:#1f77b4;" x="157.859199" xlink:href="#m9243571f92" y="203.444829"/>
     <use style="fill:#1f77b4;stroke:#1f77b4;" x="148.788352" xlink:href="#m9243571f92" y="172.380541"/>
     <use style="fill:#1f77b4;stroke:#1f77b4;" x="111.556656" xlink:href="#m9243571f92" y="65.346877"/>
     <use style="fill:#1f77b4;stroke:#1f77b4;" x="142.642161" xlink:href="#m9243571f92" y="90.59582"/>
     <use style="fill:#1f77b4;stroke:#1f77b4;" x="197.935147" xlink:href="#m9243571f92" y="138.212845"/>
     <use style="fill:#1f77b4;stroke:#1f77b4;" x="174.807124" xlink:href="#m9243571f92" y="19.296"/>
     <use style="fill:#1f77b4;stroke:#1f77b4;" x="283.160796" xlink:href="#m9243571f92" y="168.409947"/>
     <use style="fill:#1f77b4;stroke:#1f77b4;" x="265.099883" xlink:href="#m9243571f92" y="119.979845"/>
     <use style="fill:#1f77b4;stroke:#1f77b4;" x="222.91636" xlink:href="#m9243571f92" y="123.197914"/>
     <use style="fill:#1f77b4;stroke:#1f77b4;" x="190.646536" xlink:href="#m9243571f92" y="209.369581"/>
     <use style="fill:#1f77b4;stroke:#1f77b4;" x="109.958183" xlink:href="#m9243571f92" y="148.332873"/>
     <use style="fill:#1f77b4;stroke:#1f77b4;" x="189.470563" xlink:href="#m9243571f92" y="99.704163"/>
     <use style="fill:#1f77b4;stroke:#1f77b4;" x="211.933733" xlink:href="#m9243571f92" y="157.482059"/>
     <use style="fill:#1f77b4;stroke:#1f77b4;" x="185.511734" xlink:href="#m9243571f92" y="200.236923"/>
     <use style="fill:#1f77b4;stroke:#1f77b4;" x="233.852962" xlink:href="#m9243571f92" y="190.811448"/>
     <use style="fill:#1f77b4;stroke:#1f77b4;" x="197.938673" xlink:href="#m9243571f92" y="147.347985"/>
     <use style="fill:#1f77b4;stroke:#1f77b4;" x="174.567883" xlink:href="#m9243571f92" y="41.915428"/>
     <use style="fill:#1f77b4;stroke:#1f77b4;" x="210.20888" xlink:href="#m9243571f92" y="118.548647"/>
     <use style="fill:#1f77b4;stroke:#1f77b4;" x="133.650785" xlink:href="#m9243571f92" y="158.509775"/>
     <use style="fill:#1f77b4;stroke:#1f77b4;" x="160.9087" xlink:href="#m9243571f92" y="116.185181"/>
     <use style="fill:#1f77b4;stroke:#1f77b4;" x="134.515416" xlink:href="#m9243571f92" y="134.796269"/>
     <use style="fill:#1f77b4;stroke:#1f77b4;" x="246.509247" xlink:href="#m9243571f92" y="161.618457"/>
     <use style="fill:#1f77b4;stroke:#1f77b4;" x="143.284909" xlink:href="#m9243571f92" y="203.271187"/>
     <use style="fill:#1f77b4;stroke:#1f77b4;" x="176.209151" xlink:href="#m9243571f92" y="117.578757"/>
     <use style="fill:#1f77b4;stroke:#1f77b4;" x="143.732475" xlink:href="#m9243571f92" y="218.909474"/>
     <use style="fill:#1f77b4;stroke:#1f77b4;" x="120.349726" xlink:href="#m9243571f92" y="169.19199"/>
     <use style="fill:#1f77b4;stroke:#1f77b4;" x="147.305618" xlink:href="#m9243571f92" y="95.498276"/>
     <use style="fill:#1f77b4;stroke:#1f77b4;" x="176.028184" xlink:href="#m9243571f92" y="137.109342"/>
     <use style="fill:#1f77b4;stroke:#1f77b4;" x="147.375519" xlink:href="#m9243571f92" y="95.684063"/>
     <use style="fill:#1f77b4;stroke:#1f77b4;" x="259.602443" xlink:href="#m9243571f92" y="222.96481"/>
     <use style="fill:#1f77b4;stroke:#1f77b4;" x="232.556786" xlink:href="#m9243571f92" y="148.76872"/>
     <use style="fill:#1f77b4;stroke:#1f77b4;" x="155.405514" xlink:href="#m9243571f92" y="226.242931"/>
     <use style="fill:#1f77b4;stroke:#1f77b4;" x="198.51424" xlink:href="#m9243571f92" y="110.292838"/>
     <use style="fill:#1f77b4;stroke:#1f77b4;" x="170.384983" xlink:href="#m9243571f92" y="139.994485"/>
     <use style="fill:#1f77b4;stroke:#1f77b4;" x="156.069781" xlink:href="#m9243571f92" y="193.316309"/>
     <use style="fill:#1f77b4;stroke:#1f77b4;" x="178.910932" xlink:href="#m9243571f92" y="261.216"/>
     <use style="fill:#1f77b4;stroke:#1f77b4;" x="224.945531" xlink:href="#m9243571f92" y="117.28827"/>
     <use style="fill:#1f77b4;stroke:#1f77b4;" x="147.540961" xlink:href="#m9243571f92" y="129.826168"/>
     <use style="fill:#1f77b4;stroke:#1f77b4;" x="202.896614" xlink:href="#m9243571f92" y="102.10977"/>
     <use style="fill:#1f77b4;stroke:#1f77b4;" x="177.827234" xlink:href="#m9243571f92" y="170.312761"/>
     <use style="fill:#1f77b4;stroke:#1f77b4;" x="133.199381" xlink:href="#m9243571f92" y="110.03989"/>
     <use style="fill:#1f77b4;stroke:#1f77b4;" x="87.392279" xlink:href="#m9243571f92" y="182.387723"/>
     <use style="fill:#1f77b4;stroke:#1f77b4;" x="231.117464" xlink:href="#m9243571f92" y="161.791793"/>
     <use style="fill:#1f77b4;stroke:#1f77b4;" x="197.096011" xlink:href="#m9243571f92" y="150.671858"/>
     <use style="fill:#1f77b4;stroke:#1f77b4;" x="140.576753" xlink:href="#m9243571f92" y="125.297107"/>
     <use style="fill:#1f77b4;stroke:#1f77b4;" x="267.704087" xlink:href="#m9243571f92" y="92.207776"/>
     <use style="fill:#1f77b4;stroke:#1f77b4;" x="237.135561" xlink:href="#m9243571f92" y="196.776869"/>
     <use style="fill:#1f77b4;stroke:#1f77b4;" x="167.988827" xlink:href="#m9243571f92" y="162.979265"/>
     <use style="fill:#1f77b4;stroke:#1f77b4;" x="149.982486" xlink:href="#m9243571f92" y="99.098437"/>
     <use style="fill:#1f77b4;stroke:#1f77b4;" x="155.249041" xlink:href="#m9243571f92" y="75.444006"/>
     <use style="fill:#1f77b4;stroke:#1f77b4;" x="197.898694" xlink:href="#m9243571f92" y="58.966365"/>
     <use style="fill:#1f77b4;stroke:#1f77b4;" x="135.637281" xlink:href="#m9243571f92" y="174.705557"/>
     <use style="fill:#1f77b4;stroke:#1f77b4;" x="175.393471" xlink:href="#m9243571f92" y="190.041347"/>
     <use style="fill:#1f77b4;stroke:#1f77b4;" x="149.61824" xlink:href="#m9243571f92" y="168.646784"/>
     <use style="fill:#1f77b4;stroke:#1f77b4;" x="117.704055" xlink:href="#m9243571f92" y="110.246714"/>
     <use style="fill:#1f77b4;stroke:#1f77b4;" x="130.750546" xlink:href="#m9243571f92" y="158.667432"/>
     <use style="fill:#1f77b4;stroke:#1f77b4;" x="252.911399" xlink:href="#m9243571f92" y="82.020389"/>
     <use style="fill:#1f77b4;stroke:#1f77b4;" x="205.387328" xlink:href="#m9243571f92" y="44.775886"/>
     <use style="fill:#1f77b4;stroke:#1f77b4;" x="280.077714" xlink:href="#m9243571f92" y="154.503283"/>
     <use style="fill:#1f77b4;stroke:#1f77b4;" x="97.973126" xlink:href="#m9243571f92" y="148.308528"/>
     <use style="fill:#1f77b4;stroke:#1f77b4;" x="109.176559" xlink:href="#m9243571f92" y="148.733314"/>
     <use style="fill:#1f77b4;stroke:#1f77b4;" x="151.201858" xlink:href="#m9243571f92" y="109.667128"/>
     <use style="fill:#1f77b4;stroke:#1f77b4;" x="170.092643" xlink:href="#m9243571f92" y="148.025326"/>
     <use style="fill:#1f77b4;stroke:#1f77b4;" x="218.378868" xlink:href="#m9243571f92" y="149.274432"/>
     <use style="fill:#1f77b4;stroke:#1f77b4;" x="262.339324" xlink:href="#m9243571f92" y="114.031215"/>
     <use style="fill:#1f77b4;stroke:#1f77b4;" x="149.855193" xlink:href="#m9243571f92" y="57.760101"/>
     <use style="fill:#1f77b4;stroke:#1f77b4;" x="101.957212" xlink:href="#m9243571f92" y="76.60986"/>
     <use style="fill:#1f77b4;stroke:#1f77b4;" x="147.859371" xlink:href="#m9243571f92" y="36.824012"/>
     <use style="fill:#1f77b4;stroke:#1f77b4;" x="142.002636" xlink:href="#m9243571f92" y="152.859442"/>
     <use style="fill:#1f77b4;stroke:#1f77b4;" x="228.116845" xlink:href="#m9243571f92" y="87.668183"/>
     <use style="fill:#1f77b4;stroke:#1f77b4;" x="135.044093" xlink:href="#m9243571f92" y="183.54975"/>
     <use style="fill:#1f77b4;stroke:#1f77b4;" x="256.148786" xlink:href="#m9243571f92" y="167.077494"/>
     <use style="fill:#1f77b4;stroke:#1f77b4;" x="111.054797" xlink:href="#m9243571f92" y="190.37584"/>
     <use style="fill:#1f77b4;stroke:#1f77b4;" x="215.479523" xlink:href="#m9243571f92" y="187.272223"/>
     <use style="fill:#1f77b4;stroke:#1f77b4;" x="161.818118" xlink:href="#m9243571f92" y="240.492223"/>
     <use style="fill:#1f77b4;stroke:#1f77b4;" x="144.581694" xlink:href="#m9243571f92" y="89.151691"/>
     <use style="fill:#1f77b4;stroke:#1f77b4;" x="208.934549" xlink:href="#m9243571f92" y="104.70783"/>
     <use style="fill:#1f77b4;stroke:#1f77b4;" x="209.440566" xlink:href="#m9243571f92" y="168.831402"/>
     <use style="fill:#1f77b4;stroke:#1f77b4;" x="200.246436" xlink:href="#m9243571f92" y="103.940506"/>
     <use style="fill:#1f77b4;stroke:#1f77b4;" x="211.723211" xlink:href="#m9243571f92" y="133.891884"/>
     <use style="fill:#1f77b4;stroke:#1f77b4;" x="180.468949" xlink:href="#m9243571f92" y="192.879035"/>
     <use style="fill:#1f77b4;stroke:#1f77b4;" x="107.619458" xlink:href="#m9243571f92" y="110.893285"/>
     <use style="fill:#1f77b4;stroke:#1f77b4;" x="169.577158" xlink:href="#m9243571f92" y="66.127707"/>
     <use style="fill:#1f77b4;stroke:#1f77b4;" x="221.504454" xlink:href="#m9243571f92" y="246.740165"/>
     <use style="fill:#1f77b4;stroke:#1f77b4;" x="212.340738" xlink:href="#m9243571f92" y="95.826192"/>
     <use style="fill:#1f77b4;stroke:#1f77b4;" x="178.894658" xlink:href="#m9243571f92" y="187.132462"/>
     <use style="fill:#1f77b4;stroke:#1f77b4;" x="284.9952" xlink:href="#m9243571f92" y="64.673316"/>
     <use style="fill:#1f77b4;stroke:#1f77b4;" x="248.018918" xlink:href="#m9243571f92" y="88.386686"/>
     <use style="fill:#1f77b4;stroke:#1f77b4;" x="174.062825" xlink:href="#m9243571f92" y="160.3444"/>
    </g>
   </g>
  </g>
 </g>
 <defs>
  <clipPath id="p9b3deaea49">
   <rect height="266.112" width="357.12" x="7.2" y="7.2"/>
  </clipPath>
 </defs>
</svg>
