<?xml version="1.0" encoding="utf-8" standalone="no"?>
<!DOCTYPE svg PUBLIC "-//W3C//DTD SVG 1.1//EN"
  "http://www.w3.org/Graphics/SVG/1.1/DTD/svg11.dtd">
<!-- Created with matplotlib (https://matplotlib.org/) -->
<svg height="280.512pt" version="1.1" viewBox="0 0 371.52 280.512" width="371.52pt" xmlns="http://www.w3.org/2000/svg" xmlns:xlink="http://www.w3.org/1999/xlink">
 <metadata>
  <rdf:RDF xmlns:cc="http://creativecommons.org/ns#" xmlns:dc="http://purl.org/dc/elements/1.1/" xmlns:rdf="http://www.w3.org/1999/02/22-rdf-syntax-ns#">
   <cc:Work>
    <dc:type rdf:resource="http://purl.org/dc/dcmitype/StillImage"/>
    <dc:date>2024-03-29T12:12:23.159942</dc:date>
    <dc:format>image/svg+xml</dc:format>
    <dc:creator>
     <cc:Agent>
      <dc:title>Matplotlib v3.3.4, https://matplotlib.org/</dc:title>
     </cc:Agent>
    </dc:creator>
   </cc:Work>
  </rdf:RDF>
 </metadata>
 <defs>
  <style type="text/css">*{stroke-linecap:butt;stroke-linejoin:round;}</style>
 </defs>
 <g id="figure_1">
  <g id="patch_1">
   <path d="M 0 280.512 
L 371.52 280.512 
L 371.52 0 
L 0 0 
z
" style="fill:#ffffff;"/>
  </g>
  <g id="axes_1">
   <g id="line2d_1">
    <path clip-path="url(#p6ae674dd61)" d="M 194.338943 140.256 
L 182.056343 140.256 
M 191.465361 132.360897 
L 182.056343 140.256 
M 191.465361 132.360897 
L 194.338943 140.256 
M 184.189194 128.16 
L 182.056343 140.256 
M 184.189194 128.16 
L 191.465361 132.360897 
M 175.915043 129.618956 
L 182.056343 140.256 
M 175.915043 129.618956 
L 184.189194 128.16 
M 170.514474 136.055103 
L 182.056343 140.256 
M 170.514474 136.055103 
L 175.915043 129.618956 
M 170.514474 144.456897 
L 182.056343 140.256 
M 170.514474 144.456897 
L 170.514474 136.055103 
M 175.915043 150.893044 
L 182.056343 140.256 
M 175.915043 150.893044 
L 170.514474 144.456897 
M 184.189194 152.352 
L 182.056343 140.256 
M 184.189194 152.352 
L 175.915043 150.893044 
M 191.465361 148.151103 
L 182.056343 140.256 
M 191.465361 148.151103 
L 194.338943 140.256 
M 191.465361 148.151103 
L 184.189194 152.352 
M 201.522952 140.256 
L 194.338943 140.256 
M 196.968631 127.743105 
L 194.338943 140.256 
M 196.968631 127.743105 
L 191.465361 132.360897 
M 196.968631 127.743105 
L 201.522952 140.256 
M 185.436684 121.085132 
L 191.465361 132.360897 
M 185.436684 121.085132 
L 184.189194 128.16 
M 185.436684 121.085132 
L 175.915043 129.618956 
M 185.436684 121.085132 
L 196.968631 127.743105 
M 172.323038 123.397422 
L 175.915043 129.618956 
M 172.323038 123.397422 
L 185.436684 121.085132 
M 163.763713 133.598027 
L 175.915043 129.618956 
M 163.763713 133.598027 
L 170.514474 136.055103 
M 163.763713 133.598027 
L 172.323038 123.397422 
M 163.763713 146.913973 
L 170.514474 136.055103 
M 163.763713 146.913973 
L 170.514474 144.456897 
M 163.763713 146.913973 
L 175.915043 150.893044 
M 163.763713 146.913973 
L 163.763713 133.598027 
M 172.323038 157.114578 
L 175.915043 150.893044 
M 172.323038 157.114578 
L 184.189194 152.352 
M 172.323038 157.114578 
L 163.763713 146.913973 
M 185.436684 159.426868 
L 184.189194 152.352 
M 185.436684 159.426868 
L 172.323038 157.114578 
M 196.968631 152.768895 
L 194.338943 140.256 
M 196.968631 152.768895 
L 184.189194 152.352 
M 196.968631 152.768895 
L 191.465361 148.151103 
M 196.968631 152.768895 
L 201.522952 140.256 
M 196.968631 152.768895 
L 185.436684 159.426868 
M 212.90884 140.256 
L 201.522952 140.256 
M 212.90884 140.256 
L 196.968631 152.768895 
M 205.690727 120.424397 
L 201.522952 140.256 
M 205.690727 120.424397 
L 196.968631 127.743105 
M 205.690727 120.424397 
L 185.436684 121.085132 
M 205.690727 120.424397 
L 212.90884 140.256 
M 187.413823 109.872222 
L 185.436684 121.085132 
M 187.413823 109.872222 
L 172.323038 123.397422 
M 187.413823 109.872222 
L 205.690727 120.424397 
M 166.630094 113.536954 
L 172.323038 123.397422 
M 166.630094 113.536954 
L 187.413823 109.872222 
M 153.064479 129.703825 
L 172.323038 123.397422 
M 153.064479 129.703825 
L 163.763713 133.598027 
M 153.064479 129.703825 
L 163.763713 146.913973 
M 153.064479 129.703825 
L 166.630094 113.536954 
M 153.064479 150.808175 
L 163.763713 146.913973 
M 153.064479 150.808175 
L 153.064479 129.703825 
M 166.630094 166.975046 
L 163.763713 146.913973 
M 166.630094 166.975046 
L 172.323038 157.114578 
M 166.630094 166.975046 
L 185.436684 159.426868 
M 166.630094 166.975046 
L 153.064479 150.808175 
M 187.413823 170.639778 
L 185.436684 159.426868 
M 187.413823 170.639778 
L 196.968631 152.768895 
M 187.413823 170.639778 
L 166.630094 166.975046 
M 205.690727 160.087603 
L 196.968631 152.768895 
M 205.690727 160.087603 
L 212.90884 140.256 
M 205.690727 160.087603 
L 187.413823 170.639778 
M 230.954255 140.256 
L 212.90884 140.256 
M 230.954255 140.256 
L 205.690727 120.424397 
M 230.954255 140.256 
L 205.690727 160.087603 
M 219.514317 108.825028 
L 205.690727 120.424397 
M 219.514317 108.825028 
L 230.954255 140.256 
M 190.547376 92.100957 
L 205.690727 120.424397 
M 190.547376 92.100957 
L 187.413823 109.872222 
M 190.547376 92.100957 
L 219.514317 108.825028 
M 157.607387 97.909166 
L 187.413823 109.872222 
M 157.607387 97.909166 
L 166.630094 113.536954 
M 157.607387 97.909166 
L 153.064479 129.703825 
M 157.607387 97.909166 
L 190.547376 92.100957 
M 136.107335 123.531929 
L 153.064479 129.703825 
M 136.107335 123.531929 
L 153.064479 150.808175 
M 136.107335 123.531929 
L 157.607387 97.909166 
M 136.107335 156.980071 
L 153.064479 150.808175 
M 136.107335 156.980071 
L 136.107335 123.531929 
M 157.607387 182.602834 
L 153.064479 150.808175 
M 157.607387 182.602834 
L 166.630094 166.975046 
M 157.607387 182.602834 
L 136.107335 156.980071 
M 190.547376 188.411043 
L 166.630094 166.975046 
M 190.547376 188.411043 
L 187.413823 170.639778 
M 190.547376 188.411043 
L 157.607387 182.602834 
M 219.514317 171.686972 
L 187.413823 170.639778 
M 219.514317 171.686972 
L 205.690727 160.087603 
M 219.514317 171.686972 
L 230.954255 140.256 
M 219.514317 171.686972 
L 190.547376 188.411043 
M 259.554312 140.256 
L 230.954255 140.256 
M 241.423231 90.441266 
L 230.954255 140.256 
M 241.423231 90.441266 
L 219.514317 108.825028 
M 241.423231 90.441266 
L 259.554312 140.256 
M 195.513724 63.9354 
L 219.514317 108.825028 
M 195.513724 63.9354 
L 190.547376 92.100957 
M 195.513724 63.9354 
L 157.607387 97.909166 
M 195.513724 63.9354 
L 241.423231 90.441266 
M 143.307358 73.14079 
L 157.607387 97.909166 
M 143.307358 73.14079 
L 195.513724 63.9354 
M 109.232074 113.750134 
L 157.607387 97.909166 
M 109.232074 113.750134 
L 136.107335 123.531929 
M 109.232074 113.750134 
L 136.107335 156.980071 
M 109.232074 113.750134 
L 143.307358 73.14079 
M 109.232074 166.761866 
L 136.107335 156.980071 
M 109.232074 166.761866 
L 157.607387 182.602834 
M 109.232074 166.761866 
L 109.232074 113.750134 
M 143.307358 207.37121 
L 157.607387 182.602834 
M 143.307358 207.37121 
L 109.232074 166.761866 
M 195.513724 216.5766 
L 157.607387 182.602834 
M 195.513724 216.5766 
L 190.547376 188.411043 
M 195.513724 216.5766 
L 219.514317 171.686972 
M 195.513724 216.5766 
L 143.307358 207.37121 
M 241.423231 190.070734 
L 230.954255 140.256 
M 241.423231 190.070734 
L 219.514317 171.686972 
M 241.423231 190.070734 
L 259.554312 140.256 
M 241.423231 190.070734 
L 195.513724 216.5766 
M 304.882346 140.256 
L 259.554312 140.256 
M 276.14652 61.304967 
L 259.554312 140.256 
M 276.14652 61.304967 
L 241.423231 90.441266 
M 276.14652 61.304967 
L 195.513724 63.9354 
M 276.14652 61.304967 
L 304.882346 140.256 
M 203.384854 19.296 
L 195.513724 63.9354 
M 203.384854 19.296 
L 143.307358 73.14079 
M 203.384854 19.296 
L 276.14652 61.304967 
M 120.643341 33.885561 
L 143.307358 73.14079 
M 120.643341 33.885561 
L 203.384854 19.296 
M 66.637654 98.247033 
L 143.307358 73.14079 
M 66.637654 98.247033 
L 109.232074 113.750134 
M 66.637654 98.247033 
L 120.643341 33.885561 
M 66.637654 182.264967 
L 109.232074 113.750134 
M 66.637654 182.264967 
L 109.232074 166.761866 
M 66.637654 182.264967 
L 66.637654 98.247033 
M 120.643341 246.626439 
L 109.232074 166.761866 
M 120.643341 246.626439 
L 143.307358 207.37121 
M 120.643341 246.626439 
L 195.513724 216.5766 
M 120.643341 246.626439 
L 66.637654 182.264967 
M 203.384854 261.216 
L 195.513724 216.5766 
M 203.384854 261.216 
L 120.643341 246.626439 
M 276.14652 219.207033 
L 259.554312 140.256 
M 276.14652 219.207033 
L 195.513724 216.5766 
M 276.14652 219.207033 
L 241.423231 190.070734 
M 276.14652 219.207033 
L 304.882346 140.256 
M 276.14652 219.207033 
L 203.384854 261.216 
L 203.384854 261.216 
" style="fill:none;stroke:#808080;stroke-linecap:square;stroke-width:0.75;"/>
   </g>
   <g id="line2d_2"/>
  </g>
 </g>
 <defs>
  <clipPath id="p6ae674dd61">
   <rect height="266.112" width="357.12" x="7.2" y="7.2"/>
  </clipPath>
 </defs>
</svg>
