<?xml version="1.0" encoding="utf-8" standalone="no"?>
<!DOCTYPE svg PUBLIC "-//W3C//DTD SVG 1.1//EN"
  "http://www.w3.org/Graphics/SVG/1.1/DTD/svg11.dtd">
<!-- Created with matplotlib (https://matplotlib.org/) -->
<svg height="280.512pt" version="1.1" viewBox="0 0 371.52 280.512" width="371.52pt" xmlns="http://www.w3.org/2000/svg" xmlns:xlink="http://www.w3.org/1999/xlink">
 <metadata>
  <rdf:RDF xmlns:cc="http://creativecommons.org/ns#" xmlns:dc="http://purl.org/dc/elements/1.1/" xmlns:rdf="http://www.w3.org/1999/02/22-rdf-syntax-ns#">
   <cc:Work>
    <dc:type rdf:resource="http://purl.org/dc/dcmitype/StillImage"/>
    <dc:date>2024-03-29T12:12:23.086119</dc:date>
    <dc:format>image/svg+xml</dc:format>
    <dc:creator>
     <cc:Agent>
      <dc:title>Matplotlib v3.3.4, https://matplotlib.org/</dc:title>
     </cc:Agent>
    </dc:creator>
   </cc:Work>
  </rdf:RDF>
 </metadata>
 <defs>
  <style type="text/css">*{stroke-linecap:butt;stroke-linejoin:round;}</style>
 </defs>
 <g id="figure_1">
  <g id="patch_1">
   <path d="M 0 280.512 
L 371.52 280.512 
L 371.52 0 
L 0 0 
z
" style="fill:#ffffff;"/>
  </g>
  <g id="axes_1">
   <g id="PolyCollection_1">
    <path clip-path="url(#pfbb5b282b8)" d="M 182.056343 140.256 
L 170.514474 144.456897 
L 175.915043 150.893044 
z
" style="fill:#81d34d;"/>
    <path clip-path="url(#pfbb5b282b8)" d="M 170.514474 136.055103 
L 170.514474 144.456897 
L 182.056343 140.256 
z
" style="fill:#81d34d;"/>
    <path clip-path="url(#pfbb5b282b8)" d="M 191.465361 132.360897 
L 184.189194 128.16 
L 182.056343 140.256 
z
" style="fill:#2fb47c;"/>
    <path clip-path="url(#pfbb5b282b8)" d="M 182.056343 140.256 
L 184.189194 128.16 
L 175.915043 129.618956 
z
" style="fill:#60ca60;"/>
    <path clip-path="url(#pfbb5b282b8)" d="M 175.915043 129.618956 
L 170.514474 136.055103 
L 182.056343 140.256 
z
" style="fill:#46c06f;"/>
    <path clip-path="url(#pfbb5b282b8)" d="M 182.056343 140.256 
L 175.915043 150.893044 
L 184.189194 152.352 
z
" style="fill:#3aba76;"/>
    <path clip-path="url(#pfbb5b282b8)" d="M 182.056343 140.256 
L 184.189194 152.352 
L 191.465361 148.151103 
z
" style="fill:#cae11f;"/>
    <path clip-path="url(#pfbb5b282b8)" d="M 194.338943 140.256 
L 191.465361 132.360897 
L 182.056343 140.256 
z
" style="fill:#1e9b8a;"/>
    <path clip-path="url(#pfbb5b282b8)" d="M 182.056343 140.256 
L 191.465361 148.151103 
L 194.338943 140.256 
z
" style="fill:#60ca60;"/>
    <path clip-path="url(#pfbb5b282b8)" d="M 259.554312 140.256 
L 276.14652 61.304967 
L 241.423231 90.441266 
z
" style="fill:#481668;"/>
    <path clip-path="url(#pfbb5b282b8)" d="M 304.882346 140.256 
L 276.14652 61.304967 
L 259.554312 140.256 
z
" style="fill:#440154;"/>
    <path clip-path="url(#pfbb5b282b8)" d="M 259.554312 140.256 
L 276.14652 219.207033 
L 304.882346 140.256 
z
" style="fill:#450559;"/>
    <path clip-path="url(#pfbb5b282b8)" d="M 241.423231 190.070734 
L 276.14652 219.207033 
L 259.554312 140.256 
z
" style="fill:#482071;"/>
    <path clip-path="url(#pfbb5b282b8)" d="M 109.232074 166.761866 
L 120.643341 246.626439 
L 143.307358 207.37121 
z
" style="fill:#481f70;"/>
    <path clip-path="url(#pfbb5b282b8)" d="M 66.637654 182.264967 
L 120.643341 246.626439 
L 109.232074 166.761866 
z
" style="fill:#440154;"/>
    <path clip-path="url(#pfbb5b282b8)" d="M 195.513724 216.5766 
L 276.14652 219.207033 
L 241.423231 190.070734 
z
" style="fill:#481d6f;"/>
    <path clip-path="url(#pfbb5b282b8)" d="M 203.384854 261.216 
L 276.14652 219.207033 
L 195.513724 216.5766 
z
" style="fill:#450559;"/>
    <path clip-path="url(#pfbb5b282b8)" d="M 143.307358 207.37121 
L 120.643341 246.626439 
L 195.513724 216.5766 
z
" style="fill:#482173;"/>
    <path clip-path="url(#pfbb5b282b8)" d="M 195.513724 216.5766 
L 120.643341 246.626439 
L 203.384854 261.216 
z
" style="fill:#450457;"/>
    <path clip-path="url(#pfbb5b282b8)" d="M 66.637654 182.264967 
L 109.232074 166.761866 
L 109.232074 113.750134 
z
" style="fill:#481b6d;"/>
    <path clip-path="url(#pfbb5b282b8)" d="M 109.232074 113.750134 
L 66.637654 98.247033 
L 66.637654 182.264967 
z
" style="fill:#440154;"/>
    <path clip-path="url(#pfbb5b282b8)" d="M 241.423231 90.441266 
L 276.14652 61.304967 
L 195.513724 63.9354 
z
" style="fill:#481d6f;"/>
    <path clip-path="url(#pfbb5b282b8)" d="M 195.513724 63.9354 
L 276.14652 61.304967 
L 203.384854 19.296 
z
" style="fill:#450457;"/>
    <path clip-path="url(#pfbb5b282b8)" d="M 219.514317 108.825028 
L 195.513724 63.9354 
L 190.547376 92.100957 
z
" style="fill:#31688e;"/>
    <path clip-path="url(#pfbb5b282b8)" d="M 241.423231 90.441266 
L 195.513724 63.9354 
L 219.514317 108.825028 
z
" style="fill:#3c508b;"/>
    <path clip-path="url(#pfbb5b282b8)" d="M 219.514317 171.686972 
L 195.513724 216.5766 
L 241.423231 190.070734 
z
" style="fill:#38588c;"/>
    <path clip-path="url(#pfbb5b282b8)" d="M 190.547376 188.411043 
L 195.513724 216.5766 
L 219.514317 171.686972 
z
" style="fill:#2e6d8e;"/>
    <path clip-path="url(#pfbb5b282b8)" d="M 136.107335 156.980071 
L 109.232074 113.750134 
L 109.232074 166.761866 
z
" style="fill:#3c4f8a;"/>
    <path clip-path="url(#pfbb5b282b8)" d="M 136.107335 123.531929 
L 109.232074 113.750134 
L 136.107335 156.980071 
z
" style="fill:#34608d;"/>
    <path clip-path="url(#pfbb5b282b8)" d="M 66.637654 98.247033 
L 109.232074 113.750134 
L 143.307358 73.14079 
z
" style="fill:#482173;"/>
    <path clip-path="url(#pfbb5b282b8)" d="M 143.307358 73.14079 
L 120.643341 33.885561 
L 66.637654 98.247033 
z
" style="fill:#440154;"/>
    <path clip-path="url(#pfbb5b282b8)" d="M 143.307358 73.14079 
L 195.513724 63.9354 
L 203.384854 19.296 
z
" style="fill:#481f70;"/>
    <path clip-path="url(#pfbb5b282b8)" d="M 203.384854 19.296 
L 120.643341 33.885561 
L 143.307358 73.14079 
z
" style="fill:#450457;"/>
    <path clip-path="url(#pfbb5b282b8)" d="M 230.954255 140.256 
L 259.554312 140.256 
L 241.423231 90.441266 
z
" style="fill:#39568c;"/>
    <path clip-path="url(#pfbb5b282b8)" d="M 241.423231 90.441266 
L 219.514317 108.825028 
L 230.954255 140.256 
z
" style="fill:#30698e;"/>
    <path clip-path="url(#pfbb5b282b8)" d="M 241.423231 190.070734 
L 259.554312 140.256 
L 230.954255 140.256 
z
" style="fill:#3d4e8a;"/>
    <path clip-path="url(#pfbb5b282b8)" d="M 230.954255 140.256 
L 219.514317 171.686972 
L 241.423231 190.070734 
z
" style="fill:#2d718e;"/>
    <path clip-path="url(#pfbb5b282b8)" d="M 219.514317 171.686972 
L 230.954255 140.256 
L 205.690727 160.087603 
z
" style="fill:#23888e;"/>
    <path clip-path="url(#pfbb5b282b8)" d="M 205.690727 160.087603 
L 230.954255 140.256 
L 212.90884 140.256 
z
" style="fill:#23a983;"/>
    <path clip-path="url(#pfbb5b282b8)" d="M 157.607387 182.602834 
L 109.232074 166.761866 
L 143.307358 207.37121 
z
" style="fill:#3e4989;"/>
    <path clip-path="url(#pfbb5b282b8)" d="M 157.607387 182.602834 
L 136.107335 156.980071 
L 109.232074 166.761866 
z
" style="fill:#2f6c8e;"/>
    <path clip-path="url(#pfbb5b282b8)" d="M 143.307358 207.37121 
L 195.513724 216.5766 
L 157.607387 182.602834 
z
" style="fill:#3b528b;"/>
    <path clip-path="url(#pfbb5b282b8)" d="M 157.607387 182.602834 
L 195.513724 216.5766 
L 190.547376 188.411043 
z
" style="fill:#2c728e;"/>
    <path clip-path="url(#pfbb5b282b8)" d="M 172.323038 123.397422 
L 153.064479 129.703825 
L 163.763713 133.598027 
z
" style="fill:#4ec36b;"/>
    <path clip-path="url(#pfbb5b282b8)" d="M 166.630094 113.536954 
L 153.064479 129.703825 
L 172.323038 123.397422 
z
" style="fill:#1fa188;"/>
    <path clip-path="url(#pfbb5b282b8)" d="M 172.323038 123.397422 
L 187.413823 109.872222 
L 166.630094 113.536954 
z
" style="fill:#28ae80;"/>
    <path clip-path="url(#pfbb5b282b8)" d="M 185.436684 121.085132 
L 187.413823 109.872222 
L 172.323038 123.397422 
z
" style="fill:#29af7f;"/>
    <path clip-path="url(#pfbb5b282b8)" d="M 157.607387 97.909166 
L 153.064479 129.703825 
L 166.630094 113.536954 
z
" style="fill:#1f968b;"/>
    <path clip-path="url(#pfbb5b282b8)" d="M 136.107335 123.531929 
L 153.064479 129.703825 
L 157.607387 97.909166 
z
" style="fill:#26818e;"/>
    <path clip-path="url(#pfbb5b282b8)" d="M 157.607387 97.909166 
L 109.232074 113.750134 
L 136.107335 123.531929 
z
" style="fill:#355f8d;"/>
    <path clip-path="url(#pfbb5b282b8)" d="M 157.607387 97.909166 
L 143.307358 73.14079 
L 109.232074 113.750134 
z
" style="fill:#39568c;"/>
    <path clip-path="url(#pfbb5b282b8)" d="M 166.630094 113.536954 
L 187.413823 109.872222 
L 157.607387 97.909166 
z
" style="fill:#1f948c;"/>
    <path clip-path="url(#pfbb5b282b8)" d="M 157.607387 97.909166 
L 187.413823 109.872222 
L 190.547376 92.100957 
z
" style="fill:#1f978b;"/>
    <path clip-path="url(#pfbb5b282b8)" d="M 190.547376 92.100957 
L 195.513724 63.9354 
L 157.607387 97.909166 
z
" style="fill:#2d708e;"/>
    <path clip-path="url(#pfbb5b282b8)" d="M 195.513724 63.9354 
L 143.307358 73.14079 
L 157.607387 97.909166 
z
" style="fill:#3d4e8a;"/>
    <path clip-path="url(#pfbb5b282b8)" d="M 190.547376 188.411043 
L 219.514317 171.686972 
L 187.413823 170.639778 
z
" style="fill:#25848e;"/>
    <path clip-path="url(#pfbb5b282b8)" d="M 219.514317 171.686972 
L 205.690727 160.087603 
L 187.413823 170.639778 
z
" style="fill:#21918c;"/>
    <path clip-path="url(#pfbb5b282b8)" d="M 166.630094 166.975046 
L 157.607387 182.602834 
L 190.547376 188.411043 
z
" style="fill:#1f988b;"/>
    <path clip-path="url(#pfbb5b282b8)" d="M 190.547376 188.411043 
L 187.413823 170.639778 
L 166.630094 166.975046 
z
" style="fill:#22a785;"/>
    <path clip-path="url(#pfbb5b282b8)" d="M 136.107335 123.531929 
L 136.107335 156.980071 
L 153.064479 150.808175 
z
" style="fill:#27808e;"/>
    <path clip-path="url(#pfbb5b282b8)" d="M 153.064479 150.808175 
L 153.064479 129.703825 
L 136.107335 123.531929 
z
" style="fill:#2db27d;"/>
    <path clip-path="url(#pfbb5b282b8)" d="M 136.107335 156.980071 
L 157.607387 182.602834 
L 153.064479 150.808175 
z
" style="fill:#20938c;"/>
    <path clip-path="url(#pfbb5b282b8)" d="M 157.607387 182.602834 
L 166.630094 166.975046 
L 153.064479 150.808175 
z
" style="fill:#1fa188;"/>
    <path clip-path="url(#pfbb5b282b8)" d="M 205.690727 120.424397 
L 219.514317 108.825028 
L 190.547376 92.100957 
z
" style="fill:#24878e;"/>
    <path clip-path="url(#pfbb5b282b8)" d="M 190.547376 92.100957 
L 187.413823 109.872222 
L 205.690727 120.424397 
z
" style="fill:#1e9d89;"/>
    <path clip-path="url(#pfbb5b282b8)" d="M 205.690727 120.424397 
L 187.413823 109.872222 
L 185.436684 121.085132 
z
" style="fill:#1e9b8a;"/>
    <path clip-path="url(#pfbb5b282b8)" d="M 185.436684 121.085132 
L 196.968631 127.743105 
L 205.690727 120.424397 
z
" style="fill:#1f958b;"/>
    <path clip-path="url(#pfbb5b282b8)" d="M 205.690727 120.424397 
L 230.954255 140.256 
L 219.514317 108.825028 
z
" style="fill:#20a486;"/>
    <path clip-path="url(#pfbb5b282b8)" d="M 212.90884 140.256 
L 230.954255 140.256 
L 205.690727 120.424397 
z
" style="fill:#1fa188;"/>
    <path clip-path="url(#pfbb5b282b8)" d="M 205.690727 120.424397 
L 201.522952 140.256 
L 212.90884 140.256 
z
" style="fill:#1f9e89;"/>
    <path clip-path="url(#pfbb5b282b8)" d="M 196.968631 127.743105 
L 201.522952 140.256 
L 205.690727 120.424397 
z
" style="fill:#6ccd5a;"/>
    <path clip-path="url(#pfbb5b282b8)" d="M 191.465361 132.360897 
L 196.968631 127.743105 
L 185.436684 121.085132 
z
" style="fill:#3bbb75;"/>
    <path clip-path="url(#pfbb5b282b8)" d="M 185.436684 121.085132 
L 184.189194 128.16 
L 191.465361 132.360897 
z
" style="fill:#2ab07f;"/>
    <path clip-path="url(#pfbb5b282b8)" d="M 185.436684 159.426868 
L 166.630094 166.975046 
L 187.413823 170.639778 
z
" style="fill:#32b67a;"/>
    <path clip-path="url(#pfbb5b282b8)" d="M 172.323038 157.114578 
L 166.630094 166.975046 
L 185.436684 159.426868 
z
" style="fill:#35b779;"/>
    <path clip-path="url(#pfbb5b282b8)" d="M 185.436684 121.085132 
L 172.323038 123.397422 
L 175.915043 129.618956 
z
" style="fill:#27ad81;"/>
    <path clip-path="url(#pfbb5b282b8)" d="M 175.915043 129.618956 
L 184.189194 128.16 
L 185.436684 121.085132 
z
" style="fill:#25848e;"/>
    <path clip-path="url(#pfbb5b282b8)" d="M 175.915043 129.618956 
L 172.323038 123.397422 
L 163.763713 133.598027 
z
" style="fill:#58c765;"/>
    <path clip-path="url(#pfbb5b282b8)" d="M 163.763713 133.598027 
L 170.514474 136.055103 
L 175.915043 129.618956 
z
" style="fill:#50c46a;"/>
    <path clip-path="url(#pfbb5b282b8)" d="M 163.763713 146.913973 
L 175.915043 150.893044 
L 170.514474 144.456897 
z
" style="fill:#2ab07f;"/>
    <path clip-path="url(#pfbb5b282b8)" d="M 172.323038 157.114578 
L 175.915043 150.893044 
L 163.763713 146.913973 
z
" style="fill:#fde725;"/>
    <path clip-path="url(#pfbb5b282b8)" d="M 163.763713 146.913973 
L 153.064479 150.808175 
L 166.630094 166.975046 
z
" style="fill:#2cb17e;"/>
    <path clip-path="url(#pfbb5b282b8)" d="M 163.763713 146.913973 
L 166.630094 166.975046 
L 172.323038 157.114578 
z
" style="fill:#29af7f;"/>
    <path clip-path="url(#pfbb5b282b8)" d="M 163.763713 146.913973 
L 170.514474 136.055103 
L 163.763713 133.598027 
z
" style="fill:#20928c;"/>
    <path clip-path="url(#pfbb5b282b8)" d="M 170.514474 144.456897 
L 170.514474 136.055103 
L 163.763713 146.913973 
z
" style="fill:#21a585;"/>
    <path clip-path="url(#pfbb5b282b8)" d="M 163.763713 133.598027 
L 153.064479 129.703825 
L 163.763713 146.913973 
z
" style="fill:#25ab82;"/>
    <path clip-path="url(#pfbb5b282b8)" d="M 153.064479 129.703825 
L 153.064479 150.808175 
L 163.763713 146.913973 
z
" style="fill:#23a983;"/>
    <path clip-path="url(#pfbb5b282b8)" d="M 172.323038 157.114578 
L 185.436684 159.426868 
L 184.189194 152.352 
z
" style="fill:#48c16e;"/>
    <path clip-path="url(#pfbb5b282b8)" d="M 184.189194 152.352 
L 175.915043 150.893044 
L 172.323038 157.114578 
z
" style="fill:#33628d;"/>
    <path clip-path="url(#pfbb5b282b8)" d="M 194.338943 140.256 
L 201.522952 140.256 
L 196.968631 127.743105 
z
" style="fill:#1f998a;"/>
    <path clip-path="url(#pfbb5b282b8)" d="M 196.968631 127.743105 
L 191.465361 132.360897 
L 194.338943 140.256 
z
" style="fill:#fde725;"/>
    <path clip-path="url(#pfbb5b282b8)" d="M 196.968631 152.768895 
L 205.690727 160.087603 
L 212.90884 140.256 
z
" style="fill:#25ac82;"/>
    <path clip-path="url(#pfbb5b282b8)" d="M 212.90884 140.256 
L 201.522952 140.256 
L 196.968631 152.768895 
z
" style="fill:#58c765;"/>
    <path clip-path="url(#pfbb5b282b8)" d="M 201.522952 140.256 
L 194.338943 140.256 
L 196.968631 152.768895 
z
" style="fill:#b2dd2d;"/>
    <path clip-path="url(#pfbb5b282b8)" d="M 196.968631 152.768895 
L 194.338943 140.256 
L 191.465361 148.151103 
z
" style="fill:#3aba76;"/>
    <path clip-path="url(#pfbb5b282b8)" d="M 196.968631 152.768895 
L 187.413823 170.639778 
L 205.690727 160.087603 
z
" style="fill:#20a386;"/>
    <path clip-path="url(#pfbb5b282b8)" d="M 196.968631 152.768895 
L 185.436684 159.426868 
L 187.413823 170.639778 
z
" style="fill:#25ab82;"/>
    <path clip-path="url(#pfbb5b282b8)" d="M 196.968631 152.768895 
L 184.189194 152.352 
L 185.436684 159.426868 
z
" style="fill:#2fb47c;"/>
    <path clip-path="url(#pfbb5b282b8)" d="M 196.968631 152.768895 
L 191.465361 148.151103 
L 184.189194 152.352 
z
" style="fill:#69cd5b;"/>
   </g>
  </g>
 </g>
 <defs>
  <clipPath id="pfbb5b282b8">
   <rect height="266.112" width="357.12" x="7.2" y="7.2"/>
  </clipPath>
 </defs>
</svg>
